# Blender v2.80 (sub 75) OBJ File: ''
# www.blender.org
mtllib Ring.mtl
o Circle_Circle.003
v 0.000000 0.000000 -2.000000
v -0.390181 0.000000 -1.961571
v -0.765367 0.000000 -1.847759
v -1.111140 0.000000 -1.662939
v -1.414214 0.000000 -1.414214
v -1.662939 0.000000 -1.111140
v -1.847759 0.000000 -0.765367
v -1.961571 0.000000 -0.390181
v -2.000000 0.000000 -0.000000
v -1.961571 0.000000 0.390180
v -1.847759 0.000000 0.765367
v -1.662939 0.000000 1.111140
v -1.414214 0.000000 1.414214
v -1.111140 0.000000 1.662939
v -0.765367 0.000000 1.847759
v -0.390180 0.000000 1.961571
v 0.000001 0.000000 2.000000
v 0.390181 0.000000 1.961570
v 0.765368 0.000000 1.847759
v 1.111141 0.000000 1.662939
v 1.414214 0.000000 1.414213
v 1.662940 0.000000 1.111139
v 1.847760 0.000000 0.765365
v 1.961571 0.000000 0.390179
v 2.000000 0.000000 -0.000002
v 1.961570 0.000000 -0.390183
v 1.847758 0.000000 -0.765369
v 1.662938 0.000000 -1.111143
v 1.414212 0.000000 -1.414215
v 1.111138 0.000000 -1.662941
v 0.765364 0.000000 -1.847760
v 0.390178 0.000000 -1.961571
v 0.000000 0.000000 -2.000000
v -0.390181 0.000000 -1.961571
v -0.765367 0.000000 -1.847759
v -1.111140 0.000000 -1.662939
v -1.414214 0.000000 -1.414214
v -1.662939 0.000000 -1.111140
v -1.847759 0.000000 -0.765367
v -1.961571 0.000000 -0.390181
v -2.000000 0.000000 -0.000000
v -1.961571 0.000000 0.390180
v -1.847759 0.000000 0.765367
v -1.662939 0.000000 1.111140
v -1.414214 0.000000 1.414214
v -1.111140 0.000000 1.662939
v -0.765367 0.000000 1.847759
v -0.390180 0.000000 1.961571
v 0.000001 0.000000 2.000000
v 0.390181 0.000000 1.961570
v 0.765368 0.000000 1.847759
v 1.111141 0.000000 1.662939
v 1.414214 0.000000 1.414213
v 1.662940 0.000000 1.111139
v 1.847760 0.000000 0.765365
v 1.961571 0.000000 0.390179
v 2.000000 0.000000 -0.000002
v 1.961570 0.000000 -0.390183
v 1.847758 0.000000 -0.765369
v 1.662938 0.000000 -1.111143
v 1.414212 0.000000 -1.414215
v 1.111138 0.000000 -1.662941
v 0.765364 0.000000 -1.847760
v 0.390178 0.000000 -1.961571
v 0.000000 0.000000 -2.000000
v -0.390181 0.000000 -1.961571
v -0.765367 0.000000 -1.847759
v -1.111140 0.000000 -1.662939
v -1.414214 0.000000 -1.414214
v -1.662939 0.000000 -1.111140
v -1.847759 0.000000 -0.765367
v -1.961571 0.000000 -0.390181
v -2.000000 0.000000 -0.000000
v -1.961571 0.000000 0.390180
v -1.847759 0.000000 0.765367
v -1.662939 0.000000 1.111140
v -1.414214 0.000000 1.414214
v -1.111140 0.000000 1.662939
v -0.765367 0.000000 1.847759
v -0.390180 0.000000 1.961571
v 0.000001 0.000000 2.000000
v 0.390181 0.000000 1.961570
v 0.765368 0.000000 1.847759
v 1.111141 0.000000 1.662939
v 1.414214 0.000000 1.414213
v 1.662940 0.000000 1.111139
v 1.847760 0.000000 0.765365
v 1.961571 0.000000 0.390179
v 2.000000 0.000000 -0.000002
v 1.961570 0.000000 -0.390183
v 1.847758 0.000000 -0.765369
v 1.662938 0.000000 -1.111143
v 1.414212 0.000000 -1.414215
v 1.111138 0.000000 -1.662941
v 0.765364 0.000000 -1.847760
v 0.390178 0.000000 -1.961571
v -0.000000 0.000000 -1.150498
v -0.224451 0.000000 -1.128392
v -0.440277 0.000000 -1.062922
v -0.639182 0.000000 -0.956604
v -0.813525 0.000000 -0.813525
v -0.956604 0.000000 -0.639183
v -1.062921 0.000000 -0.440277
v -1.128391 0.000000 -0.224451
v -1.150498 0.000000 -0.000000
v -1.128391 0.000000 0.224451
v -1.062922 0.000000 0.440276
v -0.956604 0.000000 0.639182
v -0.813525 0.000000 0.813525
v -0.639182 0.000000 0.956604
v -0.440276 0.000000 1.062921
v -0.224451 0.000000 1.128391
v 0.000000 0.000000 1.150497
v 0.224451 0.000000 1.128391
v 0.440277 0.000000 1.062921
v 0.639183 0.000000 0.956603
v 0.813525 0.000000 0.813524
v 0.956604 0.000000 0.639181
v 1.062922 0.000000 0.440275
v 1.128391 0.000000 0.224450
v 1.150498 0.000000 -0.000001
v 1.128391 0.000000 -0.224452
v 1.062921 0.000000 -0.440278
v 0.956603 0.000000 -0.639184
v 0.813524 0.000000 -0.813526
v 0.639181 0.000000 -0.956605
v 0.440275 0.000000 -1.062922
v 0.224449 0.000000 -1.128392
vt 0.209712 0.989692
vt 0.177755 0.990142
vt 0.209712 0.989692
vt 0.816905 0.981137
vt 0.784948 0.981586
vt 0.816905 0.981137
vt 0.401457 0.986990
vt 0.369500 0.987439
vt 0.401457 0.986990
vt 0.241670 0.989241
vt 0.241670 0.989241
vt 0.848863 0.980686
vt 0.848863 0.980686
vt 0.433415 0.986539
vt 0.433415 0.986539
vt 0.273627 0.988791
vt 0.273627 0.988791
vt 0.880820 0.980235
vt 0.880820 0.980235
vt 0.465372 0.986090
vt 0.465372 0.986090
vt 0.305585 0.988340
vt 0.305585 0.988340
vt 0.912778 0.979786
vt 0.912778 0.979786
vt 0.497330 0.985638
vt 0.497330 0.985638
vt 0.337542 0.987890
vt 0.337542 0.987890
vt 0.944736 0.979334
vt 0.944736 0.979334
vt 0.529287 0.985188
vt 0.529287 0.985188
vt 0.976693 0.978883
vt 0.976693 0.978883
vt 0.561245 0.984739
vt 0.561245 0.984739
vt 1.008651 0.978434
vt 1.008651 0.978434
vt 0.593202 0.984287
vt 0.593202 0.984287
vt 0.017967 0.992394
vt -0.013991 0.992845
vt 0.017967 0.992394
vt 0.625160 0.983838
vt 0.625160 0.983838
vt 0.049924 0.991945
vt 0.049924 0.991945
vt 0.657117 0.983387
vt 0.657117 0.983387
vt 0.081882 0.991494
vt 0.081882 0.991494
vt 0.689075 0.982936
vt 0.689075 0.982936
vt 0.113840 0.991042
vt 0.113840 0.991042
vt 0.721033 0.982488
vt 0.721033 0.982488
vt 0.145797 0.990591
vt 0.145797 0.990591
vt 0.752990 0.982037
vt 0.752990 0.982037
vt 0.177755 0.990142
vt 0.784948 0.981586
vt 0.369500 0.987439
vt 0.305585 0.988340
vt 0.337542 0.987890
vt 0.912778 0.979786
vt 0.944736 0.979334
vt 0.497330 0.985638
vt 0.529287 0.985188
vt 0.976693 0.978883
vt 0.561245 0.984739
vt 1.008651 0.978434
vt 0.593202 0.984287
vt -0.013991 0.992845
vt 0.017967 0.992394
vt 0.625160 0.983838
vt 0.049924 0.991945
vt 0.657117 0.983387
vt 0.081882 0.991494
vt 0.689075 0.982936
vt 0.113840 0.991042
vt 0.721033 0.982488
vt 0.145797 0.990591
vt 0.752990 0.982037
vt 0.177755 0.990142
vt 0.784948 0.981586
vt 0.369500 0.987439
vt 0.209712 0.989692
vt 0.816905 0.981137
vt 0.401457 0.986990
vt 0.241670 0.989241
vt 0.848863 0.980686
vt 0.433415 0.986539
vt 0.273627 0.988791
vt 0.880820 0.980235
vt 0.465372 0.986090
vt 0.239396 0.002098
vt 0.590811 0.008702
vt 0.257891 0.002447
vt 0.609306 0.009051
vt 0.276387 0.002794
vt 0.627802 0.009398
vt 0.294882 0.003141
vt 0.646297 0.009746
vt 0.313378 0.003490
vt 0.664793 0.010094
vt 0.331873 0.003838
vt 0.683288 0.010442
vt 0.442846 0.005923
vt 0.350369 0.004185
vt 0.701784 0.010790
vt 0.461342 0.006269
vt 0.368864 0.004531
vt 0.720279 0.011137
vt 0.479837 0.006618
vt 0.387360 0.004878
vt 0.738775 0.011485
vt 0.498333 0.006965
vt 0.405856 0.005227
vt 0.757270 0.011833
vt 0.516828 0.007312
vt 0.424351 0.005574
vt 0.775766 0.012179
vt 0.535324 0.007661
vt 0.794261 0.012529
vt 0.553820 0.008008
vt 0.812757 0.012877
vt 0.572315 0.008355
vt -0.013991 0.992845
vt 0.220900 0.001752
vn 0.0000 0.0000 1.0000
vn 0.0000 -1.0000 0.0000
usemtl None
s off
f 29/1/1 60/2/1 61/3/1
f 16/4/1 47/5/1 48/6/1
f 3/7/1 34/8/1 35/9/1
f 30/10/1 61/3/1 62/11/1
f 17/12/1 48/6/1 49/13/1
f 4/14/1 35/9/1 36/15/1
f 31/16/1 62/11/1 63/17/1
f 18/18/1 49/13/1 50/19/1
f 5/20/1 36/15/1 37/21/1
f 32/22/1 63/17/1 64/23/1
f 19/24/1 50/19/1 51/25/1
f 6/26/1 37/21/1 38/27/1
f 1/28/1 64/23/1 33/29/1
f 20/30/1 51/25/1 52/31/1
f 7/32/1 38/27/1 39/33/1
f 21/34/1 52/31/1 53/35/1
f 8/36/1 39/33/1 40/37/1
f 22/38/1 53/35/1 54/39/1
f 9/40/1 40/37/1 41/41/1
f 23/42/1 54/43/1 55/44/1
f 10/45/1 41/41/1 42/46/1
f 24/47/1 55/44/1 56/48/1
f 11/49/1 42/46/1 43/50/1
f 25/51/1 56/48/1 57/52/1
f 12/53/1 43/50/1 44/54/1
f 26/55/1 57/52/1 58/56/1
f 13/57/1 44/54/1 45/58/1
f 27/59/1 58/56/1 59/60/1
f 14/61/1 45/58/1 46/62/1
f 28/63/1 59/60/1 60/2/1
f 15/64/1 46/62/1 47/5/1
f 2/65/1 33/29/1 34/8/1
f 33/29/1 96/66/1 65/67/1
f 52/31/1 83/68/1 84/69/1
f 39/33/1 70/70/1 71/71/1
f 53/35/1 84/69/1 85/72/1
f 40/37/1 71/71/1 72/73/1
f 54/39/1 85/72/1 86/74/1
f 41/41/1 72/73/1 73/75/1
f 55/44/1 86/76/1 87/77/1
f 42/46/1 73/75/1 74/78/1
f 56/48/1 87/77/1 88/79/1
f 43/50/1 74/78/1 75/80/1
f 57/52/1 88/79/1 89/81/1
f 44/54/1 75/80/1 76/82/1
f 58/56/1 89/81/1 90/83/1
f 45/58/1 76/82/1 77/84/1
f 59/60/1 90/83/1 91/85/1
f 46/62/1 77/84/1 78/86/1
f 60/2/1 91/85/1 92/87/1
f 47/5/1 78/86/1 79/88/1
f 34/8/1 65/67/1 66/89/1
f 61/3/1 92/87/1 93/90/1
f 48/6/1 79/88/1 80/91/1
f 35/9/1 66/89/1 67/92/1
f 62/11/1 93/90/1 94/93/1
f 49/13/1 80/91/1 81/94/1
f 36/15/1 67/92/1 68/95/1
f 63/17/1 94/93/1 95/96/1
f 50/19/1 81/94/1 82/97/1
f 37/21/1 68/95/1 69/98/1
f 64/23/1 95/96/1 96/66/1
f 51/25/1 82/97/1 83/68/1
f 38/27/1 69/98/1 70/70/1
f 86/76/2 119/99/2 87/77/2
f 73/75/2 106/100/2 74/78/2
f 88/79/2 119/99/2 120/101/2
f 74/78/2 107/102/2 75/80/2
f 89/81/2 120/101/2 121/103/2
f 75/80/2 108/104/2 76/82/2
f 90/83/2 121/103/2 122/105/2
f 77/84/2 108/104/2 109/106/2
f 90/83/2 123/107/2 91/85/2
f 77/84/2 110/108/2 78/86/2
f 92/87/2 123/107/2 124/109/2
f 78/86/2 111/110/2 79/88/2
f 65/67/2 98/111/2 66/89/2
f 92/87/2 125/112/2 93/90/2
f 79/88/2 112/113/2 80/91/2
f 66/89/2 99/114/2 67/92/2
f 93/90/2 126/115/2 94/93/2
f 80/91/2 113/116/2 81/94/2
f 67/92/2 100/117/2 68/95/2
f 95/96/2 126/115/2 127/118/2
f 81/94/2 114/119/2 82/97/2
f 68/95/2 101/120/2 69/98/2
f 95/96/2 128/121/2 96/66/2
f 83/68/2 114/119/2 115/122/2
f 69/98/2 102/123/2 70/70/2
f 96/66/2 97/124/2 65/67/2
f 83/68/2 116/125/2 84/69/2
f 70/70/2 103/126/2 71/71/2
f 84/69/2 117/127/2 85/72/2
f 71/71/2 104/128/2 72/73/2
f 85/72/2 118/129/2 86/74/2
f 72/73/2 105/130/2 73/75/2
f 29/1/1 28/63/1 60/2/1
f 16/4/1 15/64/1 47/5/1
f 3/7/1 2/65/1 34/8/1
f 30/10/1 29/1/1 61/3/1
f 17/12/1 16/4/1 48/6/1
f 4/14/1 3/7/1 35/9/1
f 31/16/1 30/10/1 62/11/1
f 18/18/1 17/12/1 49/13/1
f 5/20/1 4/14/1 36/15/1
f 32/22/1 31/16/1 63/17/1
f 19/24/1 18/18/1 50/19/1
f 6/26/1 5/20/1 37/21/1
f 1/28/1 32/22/1 64/23/1
f 20/30/1 19/24/1 51/25/1
f 7/32/1 6/26/1 38/27/1
f 21/34/1 20/30/1 52/31/1
f 8/36/1 7/32/1 39/33/1
f 22/38/1 21/34/1 53/35/1
f 9/40/1 8/36/1 40/37/1
f 23/42/1 22/131/1 54/43/1
f 10/45/1 9/40/1 41/41/1
f 24/47/1 23/42/1 55/44/1
f 11/49/1 10/45/1 42/46/1
f 25/51/1 24/47/1 56/48/1
f 12/53/1 11/49/1 43/50/1
f 26/55/1 25/51/1 57/52/1
f 13/57/1 12/53/1 44/54/1
f 27/59/1 26/55/1 58/56/1
f 14/61/1 13/57/1 45/58/1
f 28/63/1 27/59/1 59/60/1
f 15/64/1 14/61/1 46/62/1
f 2/65/1 1/28/1 33/29/1
f 33/29/1 64/23/1 96/66/1
f 52/31/1 51/25/1 83/68/1
f 39/33/1 38/27/1 70/70/1
f 53/35/1 52/31/1 84/69/1
f 40/37/1 39/33/1 71/71/1
f 54/39/1 53/35/1 85/72/1
f 41/41/1 40/37/1 72/73/1
f 55/44/1 54/43/1 86/76/1
f 42/46/1 41/41/1 73/75/1
f 56/48/1 55/44/1 87/77/1
f 43/50/1 42/46/1 74/78/1
f 57/52/1 56/48/1 88/79/1
f 44/54/1 43/50/1 75/80/1
f 58/56/1 57/52/1 89/81/1
f 45/58/1 44/54/1 76/82/1
f 59/60/1 58/56/1 90/83/1
f 46/62/1 45/58/1 77/84/1
f 60/2/1 59/60/1 91/85/1
f 47/5/1 46/62/1 78/86/1
f 34/8/1 33/29/1 65/67/1
f 61/3/1 60/2/1 92/87/1
f 48/6/1 47/5/1 79/88/1
f 35/9/1 34/8/1 66/89/1
f 62/11/1 61/3/1 93/90/1
f 49/13/1 48/6/1 80/91/1
f 36/15/1 35/9/1 67/92/1
f 63/17/1 62/11/1 94/93/1
f 50/19/1 49/13/1 81/94/1
f 37/21/1 36/15/1 68/95/1
f 64/23/1 63/17/1 95/96/1
f 51/25/1 50/19/1 82/97/1
f 38/27/1 37/21/1 69/98/1
f 86/76/2 118/132/2 119/99/2
f 73/75/2 105/130/2 106/100/2
f 88/79/2 87/77/2 119/99/2
f 74/78/2 106/100/2 107/102/2
f 89/81/2 88/79/2 120/101/2
f 75/80/2 107/102/2 108/104/2
f 90/83/2 89/81/2 121/103/2
f 77/84/2 76/82/2 108/104/2
f 90/83/2 122/105/2 123/107/2
f 77/84/2 109/106/2 110/108/2
f 92/87/2 91/85/2 123/107/2
f 78/86/2 110/108/2 111/110/2
f 65/67/2 97/124/2 98/111/2
f 92/87/2 124/109/2 125/112/2
f 79/88/2 111/110/2 112/113/2
f 66/89/2 98/111/2 99/114/2
f 93/90/2 125/112/2 126/115/2
f 80/91/2 112/113/2 113/116/2
f 67/92/2 99/114/2 100/117/2
f 95/96/2 94/93/2 126/115/2
f 81/94/2 113/116/2 114/119/2
f 68/95/2 100/117/2 101/120/2
f 95/96/2 127/118/2 128/121/2
f 83/68/2 82/97/2 114/119/2
f 69/98/2 101/120/2 102/123/2
f 96/66/2 128/121/2 97/124/2
f 83/68/2 115/122/2 116/125/2
f 70/70/2 102/123/2 103/126/2
f 84/69/2 116/125/2 117/127/2
f 71/71/2 103/126/2 104/128/2
f 85/72/2 117/127/2 118/129/2
f 72/73/2 104/128/2 105/130/2
